---
title: "kino plays asf at double speed"
date: 2007-04-11
forum: Multimedia &amp; Video
---

### Post by mega on 2007-04-11
anyone know what would be wrong?

when I import asf files from my camera/helmetcam setup kino imports it at double speed, but only the small files, not the big ones

when I export the file I trim it then plays at double speed too

playing the raw input file in totem works just fine


when I import the file it spams this in the console

[dvvideo @ 0xb7e43ba8]Can't process DV frame #190. Insufficient audio data or severe sync problem.


I cant tell if it's a kino problem of a ffmpeg problem or a setting somewhere

2nd question, what's the best format to transcode this, and the best way to do the transcode, I'm trying to trim it down, and then put it in a format that will play on a windows machine, half of them barf on mpeg4/asf files something like a compressed avi would probably be better I guess



Input #0, asf, from '/home/mega/CLIP0003.ASF':
Duration: 00:50:44.8, start: 0.000000, bitrate: 3235 kb/s
Stream #0.0: Video: mpeg4, yuv420p, 640x480, 29.97 fps(r)
Stream #0.1: Audio: adpcm_ms, 44100 Hz, stereo, 356 kb/s


that's the format, but the small 10mb file of a small section refuses to import without errors and double speed play


the file I'm trying to clip up is located here

[http://www.geekopolis.com/vids/clip5.asf](http://www.geekopolis.com/vids/clip5.asf)

---

